<?xml version="1.0" standalone="no"?><svg xmlns="http://www.w3.org/2000/svg" viewBox="0 0 1440 320"><path fill="#0099ff" fill-opacity="1" d="M0,192L34.3,197.3C68.6,203,137,213,206,197.3C274.3,181,343,139,411,144C480,149,549,203,617,197.3C685.7,192,754,128,823,117.3C891.4,107,960,149,1029,138.7C1097.1,128,1166,64,1234,80C1302.9,96,1371,192,1406,240L1440,288L1440,0L1405.7,0C1371.4,0,1303,0,1234,0C1165.7,0,1097,0,1029,0C960,0,891,0,823,0C754.3,0,686,0,617,0C548.6,0,480,0,411,0C342.9,0,274,0,206,0C137.1,0,69,0,34,0L0,0Z"></path></svg>